# xmcd CD database file
#
# Track frame offsets:
#	150
#	21910
#	40615
#	57135
#	77783
#	100053
#	119688
#	139693
#	160995
#	184460
#	202740
#	227705
#	248478
#	275155
#
# Disc length: 4013 seconds
#
# Revision: 0
# Processed by: cddbd v1.5.2PL0 Copyright (c) Steve Scherf et al.
# Submitted via: CDex 1.70beta2
#
DISCID=bc0fab0e
DTITLE=トーマス・ハーデン・トリオ - JAZZで聴く…J-POP3
DYEAR=2002
DGENRE=Jazz
TTITLE0=いとしのエリー
TTITLE1=クリスマス・イブ
TTITLE2=守ってあげたい
TTITLE3=涙のキッス
TTITLE4=PIECE OF MY WISH
TTITLE5=さよなら
TTITLE6=君がいるだけで
TTITLE7=TRUE LOVE
TTITLE8=IT'S ONLY LOVE
TTITLE9=SAY YES
TTITLE10=First love
TTITLE11=桜坂
TTITLE12=TSUNAMI
TTITLE13=白い恋人達
EXTD=YEAR: 2002
EXTT0=
EXTT1=
EXTT2=
EXTT3=
EXTT4=
EXTT5=
EXTT6=
EXTT7=
EXTT8=
EXTT9=
EXTT10=
EXTT11=
EXTT12=
EXTT13=
PLAYORDER=
